<svg width="358" height="84" viewBox="0 0 358 84" fill="none" xmlns="http://www.w3.org/2000/svg">
<g filter="url(#filter0_d_23_981)">
<path d="M38.2 0.69873L46.1029 29.2372H71.6772L50.9871 46.875L58.89 75.4135L38.2 57.7757L17.51 75.4135L25.4128 46.875L4.72281 29.2372H30.2971L38.2 0.69873Z" fill="#FAD61A"/>
<path d="M108.6 0.69873L116.503 29.2372H142.077L121.387 46.875L129.29 75.4135L108.6 57.7757L87.91 75.4135L95.8129 46.875L75.1228 29.2372H100.697L108.6 0.69873Z" fill="#FAD61A"/>
<path d="M319.8 0.69873L327.703 29.2372H353.277L332.587 46.875L340.49 75.4135L319.8 57.7757L299.11 75.4135L307.013 46.875L286.323 29.2372H311.897L319.8 0.69873Z" fill="#FAD61A"/>
<path d="M179 0.69873L186.903 29.2372H212.477L191.787 46.875L199.69 75.4135L179 57.7757L158.31 75.4135L166.213 46.875L145.523 29.2372H171.097L179 0.69873Z" fill="#FAD61A"/>
<path d="M249.4 0.69873L257.303 29.2372H282.877L262.187 46.875L270.09 75.4135L249.4 57.7757L228.71 75.4135L236.613 46.875L215.923 29.2372H241.497L249.4 0.69873Z" fill="#FAD61A"/>
</g>
<defs>
<filter id="filter0_d_23_981" x="0.722778" y="0.69873" width="356.554" height="82.7148" filterUnits="userSpaceOnUse" color-interpolation-filters="sRGB">
<feFlood flood-opacity="0" result="BackgroundImageFix"/>
<feColorMatrix in="SourceAlpha" type="matrix" values="0 0 0 0 0 0 0 0 0 0 0 0 0 0 0 0 0 0 127 0" result="hardAlpha"/>
<feOffset dy="4"/>
<feGaussianBlur stdDeviation="2"/>
<feComposite in2="hardAlpha" operator="out"/>
<feColorMatrix type="matrix" values="0 0 0 0 0 0 0 0 0 0 0 0 0 0 0 0 0 0 0.25 0"/>
<feBlend mode="normal" in2="BackgroundImageFix" result="effect1_dropShadow_23_981"/>
<feBlend mode="normal" in="SourceGraphic" in2="effect1_dropShadow_23_981" result="shape"/>
</filter>
</defs>
</svg>
